<?xml version="1.0" encoding="UTF-8" standalone="no"?>
<svg width="40px" height="23px" viewBox="0 0 40 23" version="1.1" xmlns="http://www.w3.org/2000/svg" xmlns:xlink="http://www.w3.org/1999/xlink" xmlns:sketch="http://www.bohemiancoding.com/sketch/ns">
    <title>Shape</title>
    <desc>Created with Sketch.</desc>
    <defs></defs>
    <g id="Homepage" stroke="none" stroke-width="1" fill="none" fill-rule="evenodd" sketch:type="MSPage">
        <g id="home-desktop" sketch:type="MSArtboardGroup" transform="translate(-865.000000, -4718.000000)" fill="#FFFFFF" opacity="0.0506063433">
            <g id="footer" sketch:type="MSLayerGroup" transform="translate(150.000000, 4219.000000)">
                <g id="links" transform="translate(0.000000, 287.000000)" sketch:type="MSShapeGroup">
                    <g id="grid" transform="translate(715.000000, 212.000000)">
                        <path d="M40,21.989645 L21.74831,11.503378 L40,1.01711111 L40,0.0183295019 L21.3136531,10.7578608 L21.3136531,0.0293742018 L20.4575646,0.0293742018 L20.4575646,10.7559221 L1.75769742,0.0293742018 L0.0248560886,0.0293742018 L0.0295202952,0.0181238825 L0.0295202952,22.9868991 L0.0213726937,23 L1.75769742,23 L20.4575646,12.2500115 L20.4575646,23 L21.3136531,23 L21.3136531,12.2480728 L40,22.9884266 L40,21.989645 L40,21.989645 Z M0.885608856,22.487567 L0.885608856,0.517455939 L20.0069373,11.5024968 L0.885608856,22.487567 L0.885608856,22.487567 Z" id="Shape"></path>
                    </g>
                </g>
            </g>
        </g>
    </g>
</svg>
